<?xml version="1.0" standalone="no"?>
<!DOCTYPE svg PUBLIC "-//W3C//DTD SVG 20010904//EN"
 "http://www.w3.org/TR/2001/REC-SVG-20010904/DTD/svg10.dtd">
<svg version="1.0" xmlns="http://www.w3.org/2000/svg"
 width="305.000000pt" height="305.000000pt" viewBox="0 0 305.000000 305.000000"
 preserveAspectRatio="xMidYMid meet">
<metadata>
Created by potrace 1.11, written by Peter Selinger 2001-2013
</metadata>
<g transform="translate(0.000000,305.000000) scale(0.100000,-0.100000)"
fill="#000000" stroke="none">
<path d="M797 2908 c-42 -68 -77 -129 -77 -132 0 -3 -29 -53 -64 -113 -74
-126 -317 -547 -354 -613 -13 -25 -28 -49 -32 -55 -4 -5 -21 -35 -37 -65 -17
-30 -76 -133 -131 -229 -89 -151 -100 -176 -90 -195 6 -11 61 -106 121 -211
61 -104 118 -205 129 -223 10 -18 25 -43 32 -55 8 -12 27 -45 43 -73 86 -154
459 -794 463 -794 5 0 26 34 85 139 11 20 37 64 58 99 20 35 37 67 37 72 0 4
-115 207 -255 451 -141 243 -254 447 -252 452 2 7 183 10 520 10 l517 0 54 91
c30 50 64 109 76 131 12 22 29 49 36 60 8 11 14 24 14 30 0 7 -194 10 -602 10
-332 -1 -606 0 -610 2 -9 4 -8 7 286 509 l238 409 614 -1 614 -1 29 46 c47 75
151 257 151 264 0 4 -360 7 -800 7 l-800 0 -13 -22z"/>
<path d="M2555 1850 c0 -457 2 -830 5 -830 3 0 44 65 90 146 47 80 93 157 102
172 10 15 21 34 25 42 8 16 70 121 116 198 15 26 32 56 38 67 5 11 34 61 63
110 l54 90 -23 40 c-12 22 -36 63 -51 91 -139 246 -407 704 -412 704 -4 0 -7
-374 -7 -830z"/>
<path d="M2198 1828 c-59 -104 -447 -769 -666 -1143 -112 -192 -216 -370 -230
-394 -14 -25 -38 -67 -54 -94 -16 -27 -27 -52 -24 -54 3 -3 232 -7 510 -9
l504 -4 0 880 c0 484 -1 880 -2 880 -1 0 -18 -28 -38 -62z"/>
</g>
</svg>
